<svg xmlns="http://www.w3.org/2000/svg" xmlns:xlink="http://www.w3.org/1999/xlink" xmlns:lucid="lucid" width="1195.99" height="461.5"><g transform="translate(-99.5 -479.5)" lucid:page-tab-id="HWEp-vi-RSFO"><path d="M100 660.5h80v40h-80z" stroke="#282c33" fill="#fff"/><use xlink:href="#a" transform="matrix(1,0,0,1,108,668.5) translate(2.3434094376634693 13.977177782621329)"/><path d="M400 680.5h80v40h-80z" stroke="#282c33" fill="#fff"/><use xlink:href="#b" transform="matrix(1,0,0,1,408,688.5) translate(8.065718307213304 15.719096184524485)"/><path d="M260 640.5h80v40h-80z" stroke="#282c33" fill="#fff"/><use xlink:href="#c" transform="matrix(1,0,0,1,268,648.5) translate(0.5717096775965147 13.616602739760001)"/><path d="M260 740.5h80v40h-80z" stroke="#282c33" fill="#fff"/><use xlink:href="#d" transform="matrix(1,0,0,1,268,748.5) translate(15.041676401769177 15.719096184524485)"/><path d="M180.75 680.5H210a10 10 0 0 0 10-10 10 10 0 0 1 10-10h29.05" stroke="#333" stroke-width=".5" fill="none"/><path d="M180.76 680.73h-.26v-.46h.26z" stroke="#333" stroke-width=".05" fill="#333"/><path d="M241.68 650.5l17.32 10-17.32 10M180.75 680.5H208a12 12 0 0 1 12 12v56a12 12 0 0 0 12 12h27.05" stroke="#333" stroke-width=".5" fill="none"/><path d="M180.76 680.73h-.26v-.46h.26z" stroke="#333" stroke-width=".05" fill="#333"/><path d="M241.68 750.5l17.32 10-17.32 10M399.25 700.5H382a12 12 0 0 1-12-12v-16a12 12 0 0 0-12-12h-17.05" stroke="#333" stroke-width=".5" fill="none"/><path d="M399.5 700.73h-.26v-.46h.26z" stroke="#333" stroke-width=".05" fill="#333"/><path d="M358.32 670.5l-17.32-10 17.32-10M399.25 700.5H382a12 12 0 0 0-12 12v36a12 12 0 0 1-12 12h-17.05" stroke="#333" stroke-width=".5" fill="none"/><path d="M399.5 700.73h-.26v-.46h.26z" stroke="#333" stroke-width=".05" fill="#333"/><path d="M358.32 770.5l-17.32-10 17.32-10" stroke="#333" stroke-width=".5" fill="none"/><path d="M500 620.5h80v40h-80z" stroke="#282c33" fill="#fff"/><use xlink:href="#e" transform="matrix(1,0,0,1,508,628.5) translate(2.465928647173911 14.320384289829448)"/><path d="M800 620.5h80v40h-80z" stroke="#282c33" fill="#fff"/><use xlink:href="#f" transform="matrix(1,0,0,1,808,628.5) translate(1.3907067349607727 13.977177782621329)"/><path d="M800 840h80v40h-80z" stroke="#282c33" fill="#fff"/><use xlink:href="#g" transform="matrix(1,0,0,1,808,848) translate(1.5084301407654832 15.15611713214561)"/><path d="M660 680.5h80v40h-80z" stroke="#282c33" fill="#fff"/><use xlink:href="#h" transform="matrix(1,0,0,1,668,688.5) translate(9.843565728416744 15.719096184524485)"/><path d="M540 661.25v27.25a12 12 0 0 0 12 12h107.04" stroke="#333" stroke-width=".5" fill="none"/><path d="M540.23 661.26h-.46V661h.46z" stroke="#333" stroke-width=".05" fill="#333"/><path d="M641.68 690.5l17.32 10-17.32 10M840 661.25v27.25a12 12 0 0 1-12 12h-87.04" stroke="#333" stroke-width=".5" fill="none"/><path d="M840.23 661.26h-.46V661h.46z" stroke="#333" stroke-width=".05" fill="#333"/><path d="M758.32 710.5l-17.32-10 17.32-10" stroke="#333" stroke-width=".5" fill="none"/><path d="M900 740.5h80v40h-80z" stroke="#282c33" fill="#fff"/><use xlink:href="#i" transform="matrix(1,0,0,1,908,748.5) translate(12.175451473402417 15.719096184524485)"/><path d="M580.75 640.5h218.3" stroke="#333" stroke-width=".5" fill="none"/><path d="M580.76 640.73h-.26v-.46h.26z" stroke="#333" stroke-width=".05" fill="#333"/><path d="M781.68 630.5l17.32 10-17.32 10" stroke="#333" stroke-width=".5" fill="none"/><use xlink:href="#j" transform="matrix(1,0,0,1,605.5110677083334,620.3671875) translate(0.0049999999999954525 12.916666666666668)"/><path d="M880.75 860H928a12 12 0 0 0 12-12v-66.54" stroke="#333" stroke-width=".5" fill="none"/><path d="M880.76 860.23h-.26v-.46h.26z" stroke="#333" stroke-width=".05" fill="#333"/><path d="M930 798.82l10-17.32 10 17.32M880.75 640.5H928a12 12 0 0 1 12 12v87.04" stroke="#333" stroke-width=".5" fill="none"/><path d="M880.76 640.73h-.26v-.46h.26z" stroke="#333" stroke-width=".05" fill="#333"/><path d="M950 722.18l-10 17.32-10-17.32" stroke="#333" stroke-width=".5" fill="none"/><path d="M1040 660h80v40h-80z" stroke="#282c33" fill="#fff"/><use xlink:href="#k" transform="matrix(1,0,0,1,1048,668) translate(3.660188255139519 15.15611713214561)"/><path d="M800 480h80v40h-80z" stroke="#282c33" fill="#fff"/><use xlink:href="#l" transform="matrix(1,0,0,1,808,488) translate(4.634456512481094 15.15611713214561)"/><path d="M1040 560.5h80v40h-80z" stroke="#282c33" fill="#fff"/><use xlink:href="#m" transform="matrix(1,0,0,1,1048,568.5) translate(5.289945789915409 15.15611713214561)"/><path d="M880.75 640.5H948a12 12 0 0 1 12 12V668a12 12 0 0 0 12 12h67.05" stroke="#333" stroke-width=".5" fill="none"/><path d="M880.76 640.73h-.26v-.46h.26z" stroke="#333" stroke-width=".05" fill="#333"/><path d="M1021.68 670l17.32 10-17.32 10" stroke="#333" stroke-width=".5" fill="none"/><use xlink:href="#n" transform="matrix(1,0,0,1,971.383988794035,659.8671875) translate(0.005000000000000782 12.916666666666668)"/><path d="M1080 659.25v-57.8" stroke="#333" stroke-width=".5" fill="none"/><path d="M1080.22 659.5h-.44v-.26h.44z" stroke="#333" stroke-width=".05" fill="#333"/><path d="M1070 618.82l10-17.32 10 17.32" stroke="#333" stroke-width=".5" fill="none"/><path d="M1200 560.5h80v40h-80z" stroke="#282c33" fill="#fff"/><use xlink:href="#o" transform="matrix(1,0,0,1,1208,568.5) translate(1.633950094278426 13.708267513169922)"/><path d="M1199.25 580.5h-78.3" stroke="#333" stroke-width=".5" fill="none"/><path d="M1199.5 580.73h-.26v-.46h.26z" stroke="#333" stroke-width=".05" fill="#333"/><path d="M1138.32 590.5l-17.32-10 17.32-10M1240 559.75V512a12 12 0 0 0-12-12H880.96" stroke="#333" stroke-width=".5" fill="none"/><path d="M1240.22 560h-.44v-.26h.44z" stroke="#333" stroke-width=".05" fill="#333"/><path d="M898.32 510L881 500l17.32-10M880.75 640.5H948a12 12 0 0 0 12-12v-36a12 12 0 0 1 12-12h67.05" stroke="#333" stroke-width=".5" fill="none"/><path d="M880.76 640.73h-.26v-.46h.26z" stroke="#333" stroke-width=".05" fill="#333"/><path d="M1021.68 570.5l17.32 10-17.32 10" stroke="#333" stroke-width=".5" fill="none"/><path d="M1200 780.5h80v40h-80z" stroke="#282c33" fill="#fff"/><use xlink:href="#p" transform="matrix(1,0,0,1,1208,788.5) translate(0.4747438971229337 13.977177782621329)"/><path d="M1199.25 800.5H1102a12 12 0 0 1-12-12v-16a12 12 0 0 0-12-12h-97.04" stroke="#333" stroke-width=".5" fill="none"/><path d="M1199.5 800.73h-.26v-.46h.26z" stroke="#333" stroke-width=".05" fill="#333"/><path d="M998.32 770.5l-17.32-10 17.32-10" stroke="#333" stroke-width=".5" fill="none"/><path d="M1240.22 779.54h-.44v-80.97h.44zm0-97.1h-.44v-81.2h.44z" stroke="#333" stroke-width=".05" fill="#333"/><path d="M1240.22 601.26h-.44V601h.44z" fill="#333"/><path stroke="#333" stroke-width=".05" fill="#333"/><path d="M1250.2 762.3l-10.2 17.65-10.2-17.66.4-.23 9.8 16.98 9.8-16.98z" stroke="#333" stroke-width=".05" fill="#333"/><use xlink:href="#q" transform="matrix(1,0,0,1,1184.51171875,682.43359375) translate(0.005000000000002558 12.916666666666668)"/><path d="M1040 900.5h80v40h-80z" stroke="#282c33" fill="#fff"/><use xlink:href="#r" transform="matrix(1,0,0,1,1048,908.5) translate(23.408886287156 15.719096184524485)"/><path d="M1200 900.5h80v40h-80z" stroke="#282c33" fill="#fff"/><use xlink:href="#s" transform="matrix(1,0,0,1,1208,908.5) translate(4.367479116808759 15.15611713214561)"/><path d="M1199.25 800.5H1092a12 12 0 0 0-12 12v87.04" stroke="#333" stroke-width=".5" fill="none"/><path d="M1199.5 800.73h-.26v-.46h.26z" stroke="#333" stroke-width=".05" fill="#333"/><path d="M1090 882.18l-10 17.32-10-17.32" stroke="#333" stroke-width=".5" fill="none"/><path d="M1240.22 899.54h-.44v-36.5h.44zm0-52.64h-.44v-25.65h.44z" stroke="#333" stroke-width=".05" fill="#333"/><path d="M1240.22 821.26h-.44V821h.44z" fill="#333"/><path stroke="#333" stroke-width=".05" fill="#333"/><path d="M1250.2 882.3l-10.2 17.65-10.2-17.66.4-.23 9.8 16.98 9.8-16.98z" stroke="#333" stroke-width=".05" fill="#333"/><use xlink:href="#t" transform="matrix(1,0,0,1,1225.33203125,846.904384885952) translate(0.005000000000000782 12.916666666666668)"/><path d="M1199.25 920.5h-78.3" stroke="#333" stroke-width=".5" fill="none"/><path d="M1199.5 920.73h-.26v-.46h.26z" stroke="#333" stroke-width=".05" fill="#333"/><path d="M1138.32 930.5l-17.32-10 17.32-10M140 659.75V632a12 12 0 0 1 12-12h276a12 12 0 0 1 12 12v47.54" stroke="#333" stroke-width=".5" fill="none"/><path d="M140.22 660h-.44v-.26h.44z" stroke="#333" stroke-width=".05" fill="#333"/><path d="M450 662.18l-10 17.32-10-17.32" stroke="#333" stroke-width=".5" fill="none"/><use xlink:href="#u" transform="matrix(1,0,0,1,203.89973958333331,599.8671875) translate(0.0049999999999954525 12.916666666666668)"/><path d="M840.23 839.04h-.46v-80.72h.46zm0-96.86h-.46v-80.93h.46z" stroke="#333" stroke-width=".05" fill="#333"/><path d="M840.23 661.26h-.46V661h.46z" fill="#333"/><path stroke="#333" stroke-width=".05" fill="#333"/><path d="M850.2 821.8L840 839.44l-10.2-17.66.4-.23 9.8 16.98 9.8-16.98z" stroke="#333" stroke-width=".05" fill="#333"/><use xlink:href="#v" transform="matrix(1,0,0,1,790.05859375,742.18359375) translate(0.005000000000002558 12.916666666666668)"/><path d="M840 619.75v-98.8" stroke="#333" stroke-width=".5" fill="none"/><path d="M840.23 620h-.46v-.26h.46z" stroke="#333" stroke-width=".05" fill="#333"/><path d="M830 538.32L840 521l10 17.32" stroke="#333" stroke-width=".5" fill="none"/><defs><path d="M657 26c-323 0-524-166-541-416h195c15 169 171 246 346 246 202 0 356-106 356-265 5-203-294-238-475-293-239-73-380-191-380-389 0-252 224-419 512-419 294 0 499 171 508 396H992c-17-145-151-228-328-228-193 0-321 102-321 242 0 156 175 211 284 241l149 41c160 44 422 134 422 412 0 244-197 432-541 432" id="w"/><path d="M613 24c-304 0-509-231-509-576 0-350 205-580 509-580 216 0 392 114 453 309l-173 49c-33-115-133-197-280-197-223 0-326 196-326 419 0 220 103 415 326 415 150 0 252-85 285-206l172 49C1010-95 832 24 613 24" id="x"/><path d="M338-670V0H158v-1490h180v566c73-149 190-208 336-208 226 0 379 139 379 422V0H872v-695c0-172-96-275-252-275-161 0-282 109-282 300" id="y"/><path d="M628 24c-324 0-524-230-524-574 0-343 198-582 503-582 237 0 487 146 487 559v75H286c9 234 145 362 343 362 132 0 231-58 273-172l174 48C1024-91 857 24 628 24zM287-650h624c-17-190-120-322-304-322-192 0-309 151-320 322" id="z"/><path d="M577 24c-279 0-473-224-473-580 0-354 195-576 474-576 218 0 287 134 324 193h14v-551h180V0H922v-173h-20C865-111 790 24 577 24zm27-161c203 0 314-172 314-421 0-247-108-413-314-413-212 0-317 181-317 413 0 235 108 421 317 421" id="A"/><path d="M537 14c-226 0-379-139-379-422v-710h180v695c0 172 97 275 253 275 160 0 281-109 281-300v-670h181V0H879v-209C806-46 684 14 537 14" id="B"/><path d="M338-1490V0H158v-1490h180" id="C"/><path d="M545 20c-263 0-445-160-445-446v-80h190v80c0 182 102 279 255 279 152 0 254-97 254-279v-1064h190v1064c0 286-181 446-444 446" id="D"/><path d="M613 24c-304 0-509-231-509-576 0-350 205-580 509-580 305 0 511 230 511 580 0 345-206 576-511 576zm0-161c226 0 329-195 329-415 0-222-103-419-329-419-223 0-326 196-326 419 0 220 103 415 326 415" id="E"/><path d="M677 24c-213 0-288-135-325-197h-20V0H158v-1490h180v551h14c37-59 106-193 324-193 279 0 474 222 474 576 0 356-194 580-473 580zm-27-161c209 0 317-186 317-421 0-232-105-413-317-413-206 0-314 166-314 413 0 249 111 421 314 421" id="F"/><path d="M783 20c-382 0-661-292-661-764 0-473 279-766 661-766 302 0 548 182 601 489h-190c-42-204-217-313-411-313-268 0-476 208-476 590 0 381 209 588 476 588 195 0 369-110 411-313h190c-52 303-296 489-601 489" id="G"/><path d="M338-670V0H158v-1118h173l1 207c72-158 192-221 342-221 226 0 378 139 378 422V0H872v-695c0-172-96-275-252-275-161 0-282 109-282 300" id="H"/><path d="M598-1118v154H368v674c0 100 37 144 132 144 23 0 62-6 92-12L629-6c-37 13-88 20-134 20-193 0-307-107-307-290v-688H20v-154h168v-266h180v266h230" id="I"/><path d="M158 0v-1118h174v172h12c41-113 157-188 290-188 26 0 70 2 91 3v181c-11-2-60-10-108-10-161 0-279 109-279 260V0H158" id="J"/><g id="a"><use transform="matrix(0.0025337837837837835,0,0,0.0025337837837837835,0,0)" xlink:href="#w"/><use transform="matrix(0.0025337837837837835,0,0,0.0025337837837837835,3.3293918918918917,0)" xlink:href="#x"/><use transform="matrix(0.0025337837837837835,0,0,0.0025337837837837835,6.293918918918918,0)" xlink:href="#y"/><use transform="matrix(0.0025337837837837835,0,0,0.0025337837837837835,9.362331081081079,0)" xlink:href="#z"/><use transform="matrix(0.0025337837837837835,0,0,0.0025337837837837835,12.387668918918916,0)" xlink:href="#A"/><use transform="matrix(0.0025337837837837835,0,0,0.0025337837837837835,15.565033783783782,0)" xlink:href="#B"/><use transform="matrix(0.0025337837837837835,0,0,0.0025337837837837835,18.633445945945944,0)" xlink:href="#C"/><use transform="matrix(0.0025337837837837835,0,0,0.0025337837837837835,19.890202702702698,0)" xlink:href="#z"/><use transform="matrix(0.0025337837837837835,0,0,0.0025337837837837835,22.915540540540537,0)" xlink:href="#A"/><use transform="matrix(0.0025337837837837835,0,0,0.0025337837837837835,26.092905405405396,0)" xlink:href="#D"/><use transform="matrix(0.0025337837837837835,0,0,0.0025337837837837835,29.054898648648642,0)" xlink:href="#E"/><use transform="matrix(0.0025337837837837835,0,0,0.0025337837837837835,32.16638513513513,0)" xlink:href="#F"/><use transform="matrix(0.0025337837837837835,0,0,0.0025337837837837835,35.34374999999999,0)" xlink:href="#G"/><use transform="matrix(0.0025337837837837835,0,0,0.0025337837837837835,39.13429054054053,0)" xlink:href="#E"/><use transform="matrix(0.0025337837837837835,0,0,0.0025337837837837835,42.245777027027025,0)" xlink:href="#H"/><use transform="matrix(0.0025337837837837835,0,0,0.0025337837837837835,45.3116554054054,0)" xlink:href="#I"/><use transform="matrix(0.0025337837837837835,0,0,0.0025337837837837835,47.00929054054053,0)" xlink:href="#J"/><use transform="matrix(0.0025337837837837835,0,0,0.0025337837837837835,48.876689189189186,0)" xlink:href="#E"/><use transform="matrix(0.0025337837837837835,0,0,0.0025337837837837835,51.98817567567568,0)" xlink:href="#C"/><use transform="matrix(0.0025337837837837835,0,0,0.0025337837837837835,53.24493243243243,0)" xlink:href="#C"/><use transform="matrix(0.0025337837837837835,0,0,0.0025337837837837835,54.501689189189186,0)" xlink:href="#z"/><use transform="matrix(0.0025337837837837835,0,0,0.0025337837837837835,57.52702702702702,0)" xlink:href="#J"/></g><g id="b"><use transform="matrix(0.004924785100286534,0,0,0.004924785100286534,0,0)" xlink:href="#w"/><use transform="matrix(0.004924785100286534,0,0,0.004924785100286534,6.471167621776506,0)" xlink:href="#x"/><use transform="matrix(0.004924785100286534,0,0,0.004924785100286534,12.233166189111751,0)" xlink:href="#y"/><use transform="matrix(0.004924785100286534,0,0,0.004924785100286534,18.197080945558742,0)" xlink:href="#z"/><use transform="matrix(0.004924785100286534,0,0,0.004924785100286534,24.07727435530086,0)" xlink:href="#A"/><use transform="matrix(0.004924785100286534,0,0,0.004924785100286534,30.25295487106018,0)" xlink:href="#B"/><use transform="matrix(0.004924785100286534,0,0,0.004924785100286534,36.21686962750717,0)" xlink:href="#C"/><use transform="matrix(0.004924785100286534,0,0,0.004924785100286534,38.65956303724929,0)" xlink:href="#z"/><use transform="matrix(0.004924785100286534,0,0,0.004924785100286534,44.53975644699141,0)" xlink:href="#J"/></g><path d="M180 0v-1490h270l367 940c28 72 75 218 110 339 35-117 81-264 110-339l362-940h271V0h-187c2-448-5-837 7-1287-157 497-311 829-483 1287H842C666-458 514-784 354-1284c12 438 5 843 7 1284H180" id="K"/><path d="M471 26C259 26 90-98 90-318c0-256 228-303 435-329 202-27 287-16 287-108 0-139-79-219-234-219-161 0-248 86-283 164l-173-57c86-203 278-265 451-265 150 0 419 46 419 395V0H815v-152h-12C765-73 660 26 471 26zm31-159c199 0 310-134 310-271v-155c-30 35-226 55-295 64-131 17-246 59-246 186 0 116 97 176 231 176" id="L"/><path d="M158 0v-1118h180V0H158zm91-1301c-68 0-125-53-125-119s57-119 125-119c69 0 126 53 126 119s-57 119-126 119" id="M"/><path d="M98-1322v-168h1126v168H757V0H567v-1322H98" id="N"/><path d="M538 24C308 24 148-78 108-271l171-41c32 123 123 178 257 178 156 0 256-77 256-169 0-77-54-128-164-154l-186-44c-203-48-300-148-300-305 0-192 176-326 414-326 230 0 351 112 402 269l-163 42c-31-80-94-158-238-158-133 0-233 69-233 162 0 83 57 129 188 160l169 40c203 48 298 149 298 302 0 196-179 339-441 339" id="O"/><path d="M158 0v-1490h180v865h22l478-493h223L593-638 1096 0H865L456-523 338-412V0H158" id="P"/><path d="M158 418v-1536h174v179h20c37-59 106-193 324-193 279 0 474 222 474 576 0 356-194 580-473 580-213 0-288-135-325-197h-14v591H158zm492-555c209 0 317-186 317-421 0-232-105-413-317-413-206 0-314 166-314 413 0 249 111 421 314 421" id="Q"/><path d="M611 442c-248 0-391-105-460-228l146-94c47 65 117 165 314 165 178 0 307-82 307-266v-224h-17C863-141 792-18 576-18c-268 0-472-195-472-546 0-346 197-568 476-568 216 0 288 133 326 193h17v-179h175V29c0 289-215 413-487 413zm-5-620c203 0 314-146 314-390 0-237-108-403-314-403-213 0-319 180-319 403 0 230 109 390 319 390" id="R"/><path d="M295 13c-75 0-135-60-135-135s60-135 135-135 135 60 135 135S370 13 295 13zm0-809c-75 0-135-60-135-135s60-135 135-135 135 60 135 135-60 135-135 135" id="S"/><path d="M645 0H180v-1490h484c435 0 692 280 692 742 0 466-257 748-711 748zM370-168h263c363 0 539-218 539-580 0-358-176-574-521-574H370v1154" id="T"/><g id="c"><use transform="matrix(0.002038849347568209,0,0,0.002038849347568209,0,0)" xlink:href="#K"/><use transform="matrix(0.002038849347568209,0,0,0.002038849347568209,3.7718712930011864,0)" xlink:href="#L"/><use transform="matrix(0.002038849347568209,0,0,0.002038849347568209,6.116548042704627,0)" xlink:href="#M"/><use transform="matrix(0.002038849347568209,0,0,0.002038849347568209,7.127817319098459,0)" xlink:href="#H"/><use transform="matrix(0.002038849347568209,0,0,0.002038849347568209,9.309386120996443,0)" xlink:href="#N"/><use transform="matrix(0.002038849347568209,0,0,0.002038849347568209,11.698917556346382,0)" xlink:href="#L"/><use transform="matrix(0.002038849347568209,0,0,0.002038849347568209,14.043594306049823,0)" xlink:href="#O"/><use transform="matrix(0.002038849347568209,0,0,0.002038849347568209,16.247590450771057,0)" xlink:href="#P"/><use transform="matrix(0.002038849347568209,0,0,0.002038849347568209,18.53925711743772,0)" xlink:href="#w"/><use transform="matrix(0.002038849347568209,0,0,0.002038849347568209,21.21830516014235,0)" xlink:href="#Q"/><use transform="matrix(0.002038849347568209,0,0,0.002038849347568209,23.775022241992882,0)" xlink:href="#C"/><use transform="matrix(0.002038849347568209,0,0,0.002038849347568209,24.786291518386715,0)" xlink:href="#M"/><use transform="matrix(0.002038849347568209,0,0,0.002038849347568209,25.797560794780548,0)" xlink:href="#I"/><use transform="matrix(0.002038849347568209,0,0,0.002038849347568209,27.061647390272835,0)" xlink:href="#I"/><use transform="matrix(0.002038849347568209,0,0,0.002038849347568209,28.427676453143533,0)" xlink:href="#M"/><use transform="matrix(0.002038849347568209,0,0,0.002038849347568209,29.438945729537366,0)" xlink:href="#H"/><use transform="matrix(0.002038849347568209,0,0,0.002038849347568209,31.905953440094898,0)" xlink:href="#R"/><use transform="matrix(0.002038849347568209,0,0,0.002038849347568209,34.46674822064057,0)" xlink:href="#D"/><use transform="matrix(0.002038849347568209,0,0,0.002038849347568209,36.85016310794781,0)" xlink:href="#E"/><use transform="matrix(0.002038849347568209,0,0,0.002038849347568209,39.35387010676157,0)" xlink:href="#F"/><use transform="matrix(0.002038849347568209,0,0,0.002038849347568209,41.9105871886121,0)" xlink:href="#S"/><use transform="matrix(0.002038849347568209,0,0,0.002038849347568209,43.11350830367734,0)" xlink:href="#S"/><use transform="matrix(0.002038849347568209,0,0,0.002038849347568209,44.31642941874258,0)" xlink:href="#D"/><use transform="matrix(0.002038849347568209,0,0,0.002038849347568209,46.69984430604981,0)" xlink:href="#E"/><use transform="matrix(0.002038849347568209,0,0,0.002038849347568209,49.20355130486357,0)" xlink:href="#F"/><use transform="matrix(0.002038849347568209,0,0,0.002038849347568209,51.76026838671411,0)" xlink:href="#T"/><use transform="matrix(0.002038849347568209,0,0,0.002038849347568209,54.77368772241992,0)" xlink:href="#z"/><use transform="matrix(0.002038849347568209,0,0,0.002038849347568209,57.208073843416365,0)" xlink:href="#I"/><use transform="matrix(0.002038849347568209,0,0,0.002038849347568209,58.594491399762745,0)" xlink:href="#L"/><use transform="matrix(0.002038849347568209,0,0,0.002038849347568209,60.93916814946619,0)" xlink:href="#M"/><use transform="matrix(0.002038849347568209,0,0,0.002038849347568209,61.95043742586001,0)" xlink:href="#C"/></g><g id="d"><use transform="matrix(0.004924785100286534,0,0,0.004924785100286534,0,0)" xlink:href="#N"/><use transform="matrix(0.004924785100286534,0,0,0.004924785100286534,5.93929083094556,0)" xlink:href="#J"/><use transform="matrix(0.004924785100286534,0,0,0.004924785100286534,9.893893266475647,0)" xlink:href="#M"/><use transform="matrix(0.004924785100286534,0,0,0.004924785100286534,12.336586676217768,0)" xlink:href="#R"/><use transform="matrix(0.004924785100286534,0,0,0.004924785100286534,18.522116762177657,0)" xlink:href="#R"/><use transform="matrix(0.004924785100286534,0,0,0.004924785100286534,24.707646848137543,0)" xlink:href="#z"/><use transform="matrix(0.004924785100286534,0,0,0.004924785100286534,30.587840257879666,0)" xlink:href="#J"/></g><g id="e"><use transform="matrix(0.002883808724832215,0,0,0.002883808724832215,0,0)" xlink:href="#K"/><use transform="matrix(0.002883808724832215,0,0,0.002883808724832215,5.335046140939597,0)" xlink:href="#L"/><use transform="matrix(0.002883808724832215,0,0,0.002883808724832215,8.651426174496645,0)" xlink:href="#M"/><use transform="matrix(0.002883808724832215,0,0,0.002883808724832215,10.081795302013424,0)" xlink:href="#H"/><use transform="matrix(0.002883808724832215,0,0,0.002883808724832215,13.167470637583893,0)" xlink:href="#N"/><use transform="matrix(0.002883808724832215,0,0,0.002883808724832215,16.547294463087248,0)" xlink:href="#L"/><use transform="matrix(0.002883808724832215,0,0,0.002883808724832215,19.863674496644293,0)" xlink:href="#O"/><use transform="matrix(0.002883808724832215,0,0,0.002883808724832215,22.981071728187917,0)" xlink:href="#P"/><use transform="matrix(0.002883808724832215,0,0,0.002883808724832215,26.222472734899327,0)" xlink:href="#w"/><use transform="matrix(0.002883808724832215,0,0,0.002883808724832215,30.01179739932886,0)" xlink:href="#Q"/><use transform="matrix(0.002883808724832215,0,0,0.002883808724832215,33.62809354026845,0)" xlink:href="#C"/><use transform="matrix(0.002883808724832215,0,0,0.002883808724832215,35.058462667785236,0)" xlink:href="#M"/><use transform="matrix(0.002883808724832215,0,0,0.002883808724832215,36.48883179530201,0)" xlink:href="#I"/><use transform="matrix(0.002883808724832215,0,0,0.002883808724832215,38.27679320469799,0)" xlink:href="#I"/><use transform="matrix(0.002883808724832215,0,0,0.002883808724832215,40.208945050335565,0)" xlink:href="#M"/><use transform="matrix(0.002883808724832215,0,0,0.002883808724832215,41.63931417785235,0)" xlink:href="#H"/><use transform="matrix(0.002883808724832215,0,0,0.002883808724832215,45.12872273489933,0)" xlink:href="#R"/><use transform="matrix(0.002883808724832215,0,0,0.002883808724832215,48.75078649328859,0)" xlink:href="#D"/><use transform="matrix(0.002883808724832215,0,0,0.002883808724832215,52.12195889261744,0)" xlink:href="#E"/><use transform="matrix(0.002883808724832215,0,0,0.002883808724832215,55.6632760067114,0)" xlink:href="#F"/></g><path d="M481 0L54-1118h197c107 314 236 620 325 951 87-331 217-637 324-951h197L670 0H481" id="U"/><g id="f"><use transform="matrix(0.0025337837837837835,0,0,0.0025337837837837835,0,0)" xlink:href="#K"/><use transform="matrix(0.0025337837837837835,0,0,0.0025337837837837835,4.6875,0)" xlink:href="#L"/><use transform="matrix(0.0025337837837837835,0,0,0.0025337837837837835,7.601351351351351,0)" xlink:href="#M"/><use transform="matrix(0.0025337837837837835,0,0,0.0025337837837837835,8.858108108108107,0)" xlink:href="#H"/><use transform="matrix(0.0025337837837837835,0,0,0.0025337837837837835,11.569256756756756,0)" xlink:href="#N"/><use transform="matrix(0.0025337837837837835,0,0,0.0025337837837837835,14.538851351351349,0)" xlink:href="#L"/><use transform="matrix(0.0025337837837837835,0,0,0.0025337837837837835,17.4527027027027,0)" xlink:href="#O"/><use transform="matrix(0.0025337837837837835,0,0,0.0025337837837837835,20.19172297297297,0)" xlink:href="#P"/><use transform="matrix(0.0025337837837837835,0,0,0.0025337837837837835,23.039695945945944,0)" xlink:href="#w"/><use transform="matrix(0.0025337837837837835,0,0,0.0025337837837837835,26.369087837837835,0)" xlink:href="#Q"/><use transform="matrix(0.0025337837837837835,0,0,0.0025337837837837835,29.546452702702698,0)" xlink:href="#C"/><use transform="matrix(0.0025337837837837835,0,0,0.0025337837837837835,30.803209459459456,0)" xlink:href="#M"/><use transform="matrix(0.0025337837837837835,0,0,0.0025337837837837835,32.05996621621622,0)" xlink:href="#I"/><use transform="matrix(0.0025337837837837835,0,0,0.0025337837837837835,33.63091216216216,0)" xlink:href="#I"/><use transform="matrix(0.0025337837837837835,0,0,0.0025337837837837835,35.32854729729729,0)" xlink:href="#M"/><use transform="matrix(0.0025337837837837835,0,0,0.0025337837837837835,36.58530405405405,0)" xlink:href="#H"/><use transform="matrix(0.0025337837837837835,0,0,0.0025337837837837835,39.65118243243243,0)" xlink:href="#R"/><use transform="matrix(0.0025337837837837835,0,0,0.0025337837837837835,42.83361486486486,0)" xlink:href="#w"/><use transform="matrix(0.0025337837837837835,0,0,0.0025337837837837835,46.163006756756744,0)" xlink:href="#z"/><use transform="matrix(0.0025337837837837835,0,0,0.0025337837837837835,49.18834459459458,0)" xlink:href="#J"/><use transform="matrix(0.0025337837837837835,0,0,0.0025337837837837835,51.22297297297296,0)" xlink:href="#U"/><use transform="matrix(0.0025337837837837835,0,0,0.0025337837837837835,54.13935810810809,0)" xlink:href="#M"/><use transform="matrix(0.0025337837837837835,0,0,0.0025337837837837835,55.39611486486484,0)" xlink:href="#x"/><use transform="matrix(0.0025337837837837835,0,0,0.0025337837837837835,58.360641891891866,0)" xlink:href="#z"/></g><g id="g"><use transform="matrix(0.003984737248840804,0,0,0.003984737248840804,0,0)" xlink:href="#w"/><use transform="matrix(0.003984737248840804,0,0,0.003984737248840804,5.235944744976818,0)" xlink:href="#B"/><use transform="matrix(0.003984737248840804,0,0,0.003984737248840804,10.061461553323031,0)" xlink:href="#F"/><use transform="matrix(0.003984737248840804,0,0,0.003984737248840804,14.420764103554873,0)" xlink:href="#N"/><use transform="matrix(0.003984737248840804,0,0,0.003984737248840804,19.090876159196295,0)" xlink:href="#L"/><use transform="matrix(0.003984737248840804,0,0,0.003984737248840804,23.67332399536322,0)" xlink:href="#O"/><use transform="matrix(0.003984737248840804,0,0,0.003984737248840804,27.98082496136013,0)" xlink:href="#P"/><use transform="matrix(0.003984737248840804,0,0,0.003984737248840804,32.459669629057196,0)" xlink:href="#G"/><use transform="matrix(0.003984737248840804,0,0,0.003984737248840804,38.420836553323035,0)" xlink:href="#J"/><use transform="matrix(0.003984737248840804,0,0,0.003984737248840804,41.35758790571871,0)" xlink:href="#z"/><use transform="matrix(0.003984737248840804,0,0,0.003984737248840804,46.195058925811445,0)" xlink:href="#L"/><use transform="matrix(0.003984737248840804,0,0,0.003984737248840804,50.777506761978366,0)" xlink:href="#I"/><use transform="matrix(0.003984737248840804,0,0,0.003984737248840804,53.36758597372489,0)" xlink:href="#E"/><use transform="matrix(0.003984737248840804,0,0,0.003984737248840804,58.2608433153014,0)" xlink:href="#J"/></g><g id="h"><use transform="matrix(0.004924785100286534,0,0,0.004924785100286534,0,0)" xlink:href="#K"/><use transform="matrix(0.004924785100286534,0,0,0.004924785100286534,9.110852435530088,0)" xlink:href="#L"/><use transform="matrix(0.004924785100286534,0,0,0.004924785100286534,14.7743553008596,0)" xlink:href="#M"/><use transform="matrix(0.004924785100286534,0,0,0.004924785100286534,17.217048710601723,0)" xlink:href="#H"/><use transform="matrix(0.004924785100286534,0,0,0.004924785100286534,22.486568767908317,0)" xlink:href="#N"/><use transform="matrix(0.004924785100286534,0,0,0.004924785100286534,28.258416905444133,0)" xlink:href="#L"/><use transform="matrix(0.004924785100286534,0,0,0.004924785100286534,33.92191977077365,0)" xlink:href="#O"/><use transform="matrix(0.004924785100286534,0,0,0.004924785100286534,39.24561246418339,0)" xlink:href="#P"/></g><g id="i"><use transform="matrix(0.004924785100286534,0,0,0.004924785100286534,0,0)" xlink:href="#w"/><use transform="matrix(0.004924785100286534,0,0,0.004924785100286534,6.471167621776506,0)" xlink:href="#B"/><use transform="matrix(0.004924785100286534,0,0,0.004924785100286534,12.4350823782235,0)" xlink:href="#F"/><use transform="matrix(0.004924785100286534,0,0,0.004924785100286534,17.822797277936967,0)" xlink:href="#N"/><use transform="matrix(0.004924785100286534,0,0,0.004924785100286534,23.594645415472787,0)" xlink:href="#L"/><use transform="matrix(0.004924785100286534,0,0,0.004924785100286534,29.2581482808023,0)" xlink:href="#O"/><use transform="matrix(0.004924785100286534,0,0,0.004924785100286534,34.58184097421204,0)" xlink:href="#P"/></g><path fill="#282c33" d="M538 24C308 24 148-78 108-271l171-41c32 123 123 178 257 178 156 0 256-77 256-169 0-77-54-128-164-154l-186-44c-203-48-300-148-300-305 0-192 176-326 414-326 230 0 351 112 402 269l-163 42c-31-80-94-158-238-158-133 0-233 69-233 162 0 83 57 129 188 160l169 40c203 48 298 149 298 302 0 196-179 339-441 339" id="V"/><path fill="#282c33" d="M158 418v-1536h174v179h20c37-59 106-193 324-193 279 0 474 222 474 576 0 356-194 580-473 580-213 0-288-135-325-197h-14v591H158zm492-555c209 0 317-186 317-421 0-232-105-413-317-413-206 0-314 166-314 413 0 249 111 421 314 421" id="W"/><path fill="#282c33" d="M338-1490V0H158v-1490h180" id="X"/><path fill="#282c33" d="M158 0v-1118h180V0H158zm91-1301c-68 0-125-53-125-119s57-119 125-119c69 0 126 53 126 119s-57 119-126 119" id="Y"/><path fill="#282c33" d="M598-1118v154H368v674c0 100 37 144 132 144 23 0 62-6 92-12L629-6c-37 13-88 20-134 20-193 0-307-107-307-290v-688H20v-154h168v-266h180v266h230" id="Z"/><path fill="#282c33" d="M180 0v-1490h270l367 940c28 72 75 218 110 339 35-117 81-264 110-339l362-940h271V0h-187c2-448-5-837 7-1287-157 497-311 829-483 1287H842C666-458 514-784 354-1284c12 438 5 843 7 1284H180" id="aa"/><path fill="#282c33" d="M471 26C259 26 90-98 90-318c0-256 228-303 435-329 202-27 287-16 287-108 0-139-79-219-234-219-161 0-248 86-283 164l-173-57c86-203 278-265 451-265 150 0 419 46 419 395V0H815v-152h-12C765-73 660 26 471 26zm31-159c199 0 310-134 310-271v-155c-30 35-226 55-295 64-131 17-246 59-246 186 0 116 97 176 231 176" id="ab"/><path fill="#282c33" d="M338-670V0H158v-1118h173l1 207c72-158 192-221 342-221 226 0 378 139 378 422V0H872v-695c0-172-96-275-252-275-161 0-282 109-282 300" id="ac"/><path fill="#282c33" d="M98-1322v-168h1126v168H757V0H567v-1322H98" id="ad"/><path fill="#282c33" d="M158 0v-1490h180v865h22l478-493h223L593-638 1096 0H865L456-523 338-412V0H158" id="ae"/><path fill="#282c33" d="M370-1490V0H180v-1490h190" id="af"/><path fill="#282c33" d="M613 24c-304 0-509-231-509-576 0-350 205-580 509-580 305 0 511 230 511 580 0 345-206 576-511 576zm0-161c226 0 329-195 329-415 0-222-103-419-329-419-223 0-326 196-326 419 0 220 103 415 326 415" id="ag"/><path fill="#282c33" d="M657 26c-323 0-524-166-541-416h195c15 169 171 246 346 246 202 0 356-106 356-265 5-203-294-238-475-293-239-73-380-191-380-389 0-252 224-419 512-419 294 0 499 171 508 396H992c-17-145-151-228-328-228-193 0-321 102-321 242 0 156 175 211 284 241l149 41c160 44 422 134 422 412 0 244-197 432-541 432" id="ah"/><path fill="#282c33" d="M537 14c-226 0-379-139-379-422v-710h180v695c0 172 97 275 253 275 160 0 281-109 281-300v-670h181V0H879v-209C806-46 684 14 537 14" id="ai"/><path fill="#282c33" d="M677 24c-213 0-288-135-325-197h-20V0H158v-1490h180v551h14c37-59 106-193 324-193 279 0 474 222 474 576 0 356-194 580-473 580zm-27-161c209 0 317-186 317-421 0-232-105-413-317-413-206 0-314 166-314 413 0 249 111 421 314 421" id="aj"/><g id="j"><use transform="matrix(0.006510416666666667,0,0,0.006510416666666667,0,0)" xlink:href="#V"/><use transform="matrix(0.006510416666666667,0,0,0.006510416666666667,7.037760416666667,0)" xlink:href="#W"/><use transform="matrix(0.006510416666666667,0,0,0.006510416666666667,15.201822916666668,0)" xlink:href="#X"/><use transform="matrix(0.006510416666666667,0,0,0.006510416666666667,18.430989583333336,0)" xlink:href="#Y"/><use transform="matrix(0.006510416666666667,0,0,0.006510416666666667,21.660156250000004,0)" xlink:href="#Z"/><use transform="matrix(0.006510416666666667,0,0,0.006510416666666667,26.02213541666667,0)" xlink:href="#aa"/><use transform="matrix(0.006510416666666667,0,0,0.006510416666666667,38.06640625000001,0)" xlink:href="#ab"/><use transform="matrix(0.006510416666666667,0,0,0.006510416666666667,45.55338541666667,0)" xlink:href="#Y"/><use transform="matrix(0.006510416666666667,0,0,0.006510416666666667,48.782552083333336,0)" xlink:href="#ac"/><use transform="matrix(0.006510416666666667,0,0,0.006510416666666667,55.74869791666667,0)" xlink:href="#ad"/><use transform="matrix(0.006510416666666667,0,0,0.006510416666666667,63.37890625,0)" xlink:href="#ab"/><use transform="matrix(0.006510416666666667,0,0,0.006510416666666667,70.86588541666667,0)" xlink:href="#V"/><use transform="matrix(0.006510416666666667,0,0,0.006510416666666667,77.90364583333334,0)" xlink:href="#ae"/><use transform="matrix(0.006510416666666667,0,0,0.006510416666666667,85.22135416666667,0)" xlink:href="#af"/><use transform="matrix(0.006510416666666667,0,0,0.006510416666666667,88.80208333333334,0)" xlink:href="#ac"/><use transform="matrix(0.006510416666666667,0,0,0.006510416666666667,96.67968750000001,0)" xlink:href="#Z"/><use transform="matrix(0.006510416666666667,0,0,0.006510416666666667,100.91145833333336,0)" xlink:href="#ag"/><use transform="matrix(0.006510416666666667,0,0,0.006510416666666667,108.90625000000003,0)" xlink:href="#ah"/><use transform="matrix(0.006510416666666667,0,0,0.006510416666666667,117.46093750000003,0)" xlink:href="#ai"/><use transform="matrix(0.006510416666666667,0,0,0.006510416666666667,125.34505208333336,0)" xlink:href="#aj"/><use transform="matrix(0.006510416666666667,0,0,0.006510416666666667,132.46744791666669,0)" xlink:href="#ad"/><use transform="matrix(0.006510416666666667,0,0,0.006510416666666667,140.09765625000003,0)" xlink:href="#ab"/><use transform="matrix(0.006510416666666667,0,0,0.006510416666666667,147.58463541666669,0)" xlink:href="#V"/><use transform="matrix(0.006510416666666667,0,0,0.006510416666666667,154.62239583333334,0)" xlink:href="#ae"/><use transform="matrix(0.006510416666666667,0,0,0.006510416666666667,161.94010416666669,0)" xlink:href="#V"/></g><path d="M180 0v-1490h190c0 262 1 526-3 784 217-279 467-523 702-784h249L716-845 1319 0h-225L585-716 370-489V0H180" id="ak"/><path d="M678-1118v154H420V0H240v-964H20v-154h220v-149c0-194 155-293 318-293 85 0 141 18 168 30l-50 154c-19-6-47-17-97-17-111 0-159 58-159 166v109h258" id="al"/><path d="M158 0v-1118h175l1 205c55-151 181-225 313-225 147 0 245 90 285 228 53-141 190-228 352-228 194 0 352 125 352 384V0h-181v-749c0-161-105-225-225-225-151 0-243 103-243 244V0H807v-767c0-124-93-207-219-207-131 0-250 92-250 270V0H158" id="am"/><g id="k"><use transform="matrix(0.003984737248840804,0,0,0.003984737248840804,0,0)" xlink:href="#ak"/><use transform="matrix(0.003984737248840804,0,0,0.003984737248840804,5.482998454404947,0)" xlink:href="#L"/><use transform="matrix(0.003984737248840804,0,0,0.003984737248840804,10.065446290571872,0)" xlink:href="#al"/><use transform="matrix(0.003984737248840804,0,0,0.003984737248840804,13.085877125193202,0)" xlink:href="#P"/><use transform="matrix(0.003984737248840804,0,0,0.003984737248840804,17.564721792890268,0)" xlink:href="#L"/><use transform="matrix(0.003984737248840804,0,0,0.003984737248840804,21.58930641421948,0)" xlink:href="#N"/><use transform="matrix(0.003984737248840804,0,0,0.003984737248840804,26.219571097372494,0)" xlink:href="#z"/><use transform="matrix(0.003984737248840804,0,0,0.003984737248840804,30.977347372488413,0)" xlink:href="#am"/><use transform="matrix(0.003984737248840804,0,0,0.003984737248840804,38.12596599690882,0)" xlink:href="#Q"/><use transform="matrix(0.003984737248840804,0,0,0.003984737248840804,43.122826506955185,0)" xlink:href="#C"/><use transform="matrix(0.003984737248840804,0,0,0.003984737248840804,45.09925618238022,0)" xlink:href="#L"/><use transform="matrix(0.003984737248840804,0,0,0.003984737248840804,49.681704018547144,0)" xlink:href="#I"/><use transform="matrix(0.003984737248840804,0,0,0.003984737248840804,52.27178323029367,0)" xlink:href="#z"/></g><path d="M784 20c-382 0-662-292-662-764 0-473 280-766 662-766s660 293 660 766c0 472-278 764-660 764zm0-176c266 0 475-207 475-588 0-383-209-590-475-590-268 0-477 208-477 590 0 380 209 588 477 588" id="an"/><path d="M157-1118h181V80c1 225-123 350-364 338V252c126 9 184-48 183-172v-1198zm91-183c-68 0-125-53-125-119s57-119 125-119c69 0 126 53 126 119s-57 119-126 119" id="ao"/><g id="l"><use transform="matrix(0.003984737248840804,0,0,0.003984737248840804,0,0)" xlink:href="#an"/><use transform="matrix(0.003984737248840804,0,0,0.003984737248840804,6.2400985316847,0)" xlink:href="#F"/><use transform="matrix(0.003984737248840804,0,0,0.003984737248840804,11.236959041731069,0)" xlink:href="#ao"/><use transform="matrix(0.003984737248840804,0,0,0.003984737248840804,13.213388717156107,0)" xlink:href="#z"/><use transform="matrix(0.003984737248840804,0,0,0.003984737248840804,17.97116499227203,0)" xlink:href="#x"/><use transform="matrix(0.003984737248840804,0,0,0.003984737248840804,22.63330757341577,0)" xlink:href="#I"/><use transform="matrix(0.003984737248840804,0,0,0.003984737248840804,25.30308153013911,0)" xlink:href="#K"/><use transform="matrix(0.003984737248840804,0,0,0.003984737248840804,32.6748454404946,0)" xlink:href="#L"/><use transform="matrix(0.003984737248840804,0,0,0.003984737248840804,37.25729327666153,0)" xlink:href="#Q"/><use transform="matrix(0.003984737248840804,0,0,0.003984737248840804,42.25415378670789,0)" xlink:href="#Q"/><use transform="matrix(0.003984737248840804,0,0,0.003984737248840804,47.251014296754256,0)" xlink:href="#z"/><use transform="matrix(0.003984737248840804,0,0,0.003984737248840804,52.00879057187018,0)" xlink:href="#J"/></g><g id="m"><use transform="matrix(0.003984737248840804,0,0,0.003984737248840804,0,0)" xlink:href="#D"/><use transform="matrix(0.003984737248840804,0,0,0.003984737248840804,4.658157843894901,0)" xlink:href="#O"/><use transform="matrix(0.003984737248840804,0,0,0.003984737248840804,8.96565880989181,0)" xlink:href="#E"/><use transform="matrix(0.003984737248840804,0,0,0.003984737248840804,13.858916151468318,0)" xlink:href="#H"/><use transform="matrix(0.003984737248840804,0,0,0.003984737248840804,18.680448222565687,0)" xlink:href="#K"/><use transform="matrix(0.003984737248840804,0,0,0.003984737248840804,26.052212132921177,0)" xlink:href="#z"/><use transform="matrix(0.003984737248840804,0,0,0.003984737248840804,30.809988408037096,0)" xlink:href="#O"/><use transform="matrix(0.003984737248840804,0,0,0.003984737248840804,35.11748937403401,0)" xlink:href="#O"/><use transform="matrix(0.003984737248840804,0,0,0.003984737248840804,39.42499034003092,0)" xlink:href="#L"/><use transform="matrix(0.003984737248840804,0,0,0.003984737248840804,44.00743817619784,0)" xlink:href="#R"/><use transform="matrix(0.003984737248840804,0,0,0.003984737248840804,49.01226816074189,0)" xlink:href="#z"/></g><path fill="#282c33" d="M628 24c-324 0-524-230-524-574 0-343 198-582 503-582 237 0 487 146 487 559v75H286c9 234 145 362 343 362 132 0 231-58 273-172l174 48C1024-91 857 24 628 24zM287-650h624c-17-190-120-322-304-322-192 0-309 151-320 322" id="ap"/><path fill="#282c33" d="M577 24c-279 0-473-224-473-580 0-354 195-576 474-576 218 0 287 134 324 193h14v-551h180V0H922v-173h-20C865-111 790 24 577 24zm27-161c203 0 314-172 314-421 0-247-108-413-314-413-212 0-317 181-317 413 0 235 108 421 317 421" id="aq"/><g id="n"><use transform="matrix(0.006510416666666667,0,0,0.006510416666666667,0,0)" xlink:href="#V"/><use transform="matrix(0.006510416666666667,0,0,0.006510416666666667,7.037760416666667,0)" xlink:href="#ap"/><use transform="matrix(0.006510416666666667,0,0,0.006510416666666667,14.811197916666668,0)" xlink:href="#ac"/><use transform="matrix(0.006510416666666667,0,0,0.006510416666666667,22.688802083333336,0)" xlink:href="#aq"/></g><g id="o"><use transform="matrix(0.0022595311130587203,0,0,0.0022595311130587203,0,0)" xlink:href="#w"/><use transform="matrix(0.0022595311130587203,0,0,0.0022595311130587203,2.969023882559159,0)" xlink:href="#B"/><use transform="matrix(0.0022595311130587203,0,0,0.0022595311130587203,5.70531606047327,0)" xlink:href="#F"/><use transform="matrix(0.0022595311130587203,0,0,0.0022595311130587203,8.17724309815951,0)" xlink:href="#N"/><use transform="matrix(0.0022595311130587203,0,0,0.0022595311130587203,10.82541356266433,0)" xlink:href="#L"/><use transform="matrix(0.0022595311130587203,0,0,0.0022595311130587203,13.423874342681858,0)" xlink:href="#O"/><use transform="matrix(0.0022595311130587203,0,0,0.0022595311130587203,15.866427475898336,0)" xlink:href="#P"/><use transform="matrix(0.0022595311130587203,0,0,0.0022595311130587203,18.406140446976337,0)" xlink:href="#K"/><use transform="matrix(0.0022595311130587203,0,0,0.0022595311130587203,22.58627300613497,0)" xlink:href="#z"/><use transform="matrix(0.0022595311130587203,0,0,0.0022595311130587203,25.28415315512708,0)" xlink:href="#O"/><use transform="matrix(0.0022595311130587203,0,0,0.0022595311130587203,27.726706288343557,0)" xlink:href="#O"/><use transform="matrix(0.0022595311130587203,0,0,0.0022595311130587203,30.169259421560035,0)" xlink:href="#L"/><use transform="matrix(0.0022595311130587203,0,0,0.0022595311130587203,32.76772020157756,0)" xlink:href="#R"/><use transform="matrix(0.0022595311130587203,0,0,0.0022595311130587203,35.60569127957932,0)" xlink:href="#z"/><use transform="matrix(0.0022595311130587203,0,0,0.0022595311130587203,38.30357142857142,0)" xlink:href="#G"/><use transform="matrix(0.0022595311130587203,0,0,0.0022595311130587203,41.683829973707276,0)" xlink:href="#E"/><use transform="matrix(0.0022595311130587203,0,0,0.0022595311130587203,44.45853418054338,0)" xlink:href="#H"/><use transform="matrix(0.0022595311130587203,0,0,0.0022595311130587203,47.192566827344436,0)" xlink:href="#O"/><use transform="matrix(0.0022595311130587203,0,0,0.0022595311130587203,49.63511996056091,0)" xlink:href="#B"/><use transform="matrix(0.0022595311130587203,0,0,0.0022595311130587203,52.37141213847502,0)" xlink:href="#am"/><use transform="matrix(0.0022595311130587203,0,0,0.0022595311130587203,56.42501095530237,0)" xlink:href="#z"/><use transform="matrix(0.0022595311130587203,0,0,0.0022595311130587203,59.122891104294474,0)" xlink:href="#J"/></g><path d="M180 0v-1490h908v168H370v486h669v168H370v500h727V0H180" id="ar"/><path d="M65 0l393-574-370-544h210c88 136 192 297 267 435 67-142 176-302 264-435h206L661-564 1053 0H844c-94-144-206-310-287-458C484-308 366-142 273 0H65" id="as"/><g id="p"><use transform="matrix(0.0025337837837837835,0,0,0.0025337837837837835,0,0)" xlink:href="#w"/><use transform="matrix(0.0025337837837837835,0,0,0.0025337837837837835,3.3293918918918917,0)" xlink:href="#B"/><use transform="matrix(0.0025337837837837835,0,0,0.0025337837837837835,6.3978040540540535,0)" xlink:href="#F"/><use transform="matrix(0.0025337837837837835,0,0,0.0025337837837837835,9.169763513513514,0)" xlink:href="#N"/><use transform="matrix(0.0025337837837837835,0,0,0.0025337837837837835,12.139358108108107,0)" xlink:href="#L"/><use transform="matrix(0.0025337837837837835,0,0,0.0025337837837837835,15.053209459459458,0)" xlink:href="#O"/><use transform="matrix(0.0025337837837837835,0,0,0.0025337837837837835,17.79222972972973,0)" xlink:href="#P"/><use transform="matrix(0.0025337837837837835,0,0,0.0025337837837837835,20.640202702702698,0)" xlink:href="#ar"/><use transform="matrix(0.0025337837837837835,0,0,0.0025337837837837835,23.759290540540537,0)" xlink:href="#as"/><use transform="matrix(0.0025337837837837835,0,0,0.0025337837837837835,26.475506756756754,0)" xlink:href="#z"/><use transform="matrix(0.0025337837837837835,0,0,0.0025337837837837835,29.50084459459459,0)" xlink:href="#x"/><use transform="matrix(0.0025337837837837835,0,0,0.0025337837837837835,32.465371621621614,0)" xlink:href="#B"/><use transform="matrix(0.0025337837837837835,0,0,0.0025337837837837835,35.533783783783775,0)" xlink:href="#I"/><use transform="matrix(0.0025337837837837835,0,0,0.0025337837837837835,37.23141891891891,0)" xlink:href="#M"/><use transform="matrix(0.0025337837837837835,0,0,0.0025337837837837835,38.48817567567567,0)" xlink:href="#E"/><use transform="matrix(0.0025337837837837835,0,0,0.0025337837837837835,41.599662162162154,0)" xlink:href="#H"/><use transform="matrix(0.0025337837837837835,0,0,0.0025337837837837835,44.66554054054053,0)" xlink:href="#w"/><use transform="matrix(0.0025337837837837835,0,0,0.0025337837837837835,47.99493243243243,0)" xlink:href="#z"/><use transform="matrix(0.0025337837837837835,0,0,0.0025337837837837835,51.02027027027025,0)" xlink:href="#J"/><use transform="matrix(0.0025337837837837835,0,0,0.0025337837837837835,53.054898648648646,0)" xlink:href="#U"/><use transform="matrix(0.0025337837837837835,0,0,0.0025337837837837835,55.97128378378377,0)" xlink:href="#M"/><use transform="matrix(0.0025337837837837835,0,0,0.0025337837837837835,57.22804054054052,0)" xlink:href="#x"/><use transform="matrix(0.0025337837837837835,0,0,0.0025337837837837835,60.192567567567544,0)" xlink:href="#z"/></g><path fill="#282c33" d="M65 0l393-574-370-544h210c88 136 192 297 267 435 67-142 176-302 264-435h206L661-564 1053 0H844c-94-144-206-310-287-458C484-308 366-142 273 0H65" id="at"/><path fill="#282c33" d="M613 24c-304 0-509-231-509-576 0-350 205-580 509-580 216 0 392 114 453 309l-173 49c-33-115-133-197-280-197-223 0-326 196-326 419 0 220 103 415 326 415 150 0 252-85 285-206l172 49C1010-95 832 24 613 24" id="au"/><path fill="#282c33" d="M218-607c0-325 108-727 258-974h175c-155 315-250 682-250 974 0 265 78 531 250 886H476C306-10 218-315 218-607" id="av"/><path fill="#282c33" d="M96 279C273-86 346-350 346-607c0-292-95-659-250-974h175c150 246 258 650 258 974 0 297-91 602-258 886H96" id="aw"/><g id="q"><use transform="matrix(0.006510416666666667,0,0,0.006510416666666667,0,0)" xlink:href="#ap"/><use transform="matrix(0.006510416666666667,0,0,0.006510416666666667,7.473958333333334,0)" xlink:href="#at"/><use transform="matrix(0.006510416666666667,0,0,0.006510416666666667,14.453125,0)" xlink:href="#ap"/><use transform="matrix(0.006510416666666667,0,0,0.006510416666666667,22.2265625,0)" xlink:href="#au"/><use transform="matrix(0.006510416666666667,0,0,0.006510416666666667,29.84375,0)" xlink:href="#ai"/><use transform="matrix(0.006510416666666667,0,0,0.006510416666666667,37.727864583333336,0)" xlink:href="#Z"/><use transform="matrix(0.006510416666666667,0,0,0.006510416666666667,41.959635416666664,0)" xlink:href="#ap"/><use transform="matrix(0.006510416666666667,0,0,0.006510416666666667,49.733072916666664,0)" xlink:href="#av"/><use transform="matrix(0.006510416666666667,0,0,0.006510416666666667,54.59635416666667,0)" xlink:href="#V"/><use transform="matrix(0.006510416666666667,0,0,0.006510416666666667,61.63411458333332,0)" xlink:href="#ai"/><use transform="matrix(0.006510416666666667,0,0,0.006510416666666667,69.51822916666666,0)" xlink:href="#aj"/><use transform="matrix(0.006510416666666667,0,0,0.006510416666666667,76.64062499999999,0)" xlink:href="#ad"/><use transform="matrix(0.006510416666666667,0,0,0.006510416666666667,84.27083333333331,0)" xlink:href="#ab"/><use transform="matrix(0.006510416666666667,0,0,0.006510416666666667,91.75781249999999,0)" xlink:href="#V"/><use transform="matrix(0.006510416666666667,0,0,0.006510416666666667,98.79557291666666,0)" xlink:href="#ae"/><use transform="matrix(0.006510416666666667,0,0,0.006510416666666667,106.11328124999999,0)" xlink:href="#aw"/></g><path d="M180 0v-1490h901v168H370v510h643v168H370V0H180" id="ax"/><g id="r"><use transform="matrix(0.004924785100286534,0,0,0.004924785100286534,0,0)" xlink:href="#ax"/><use transform="matrix(0.004924785100286534,0,0,0.004924785100286534,5.5551575931232104,0)" xlink:href="#E"/><use transform="matrix(0.004924785100286534,0,0,0.004924785100286534,11.602793696275073,0)" xlink:href="#E"/></g><path d="M180 0v-1490h510c348 0 508 194 508 460 0 198-88 351-276 417L1256 0h-220L726-579c-117 2-238 0-356 1V0H180zm190-747h312c235 0 327-108 327-283 0-177-92-293-329-293H370v576" id="ay"/><path d="M140 405l46-156c120 36 205 19 263-150l32-93L54-1118h197c107 313 237 620 324 950 87-331 219-637 326-950h196L606 167c-68 178-176 259-334 259-64 0-113-12-132-21" id="az"/><g id="s"><use transform="matrix(0.003984737248840804,0,0,0.003984737248840804,0,0)" xlink:href="#ax"/><use transform="matrix(0.003984737248840804,0,0,0.003984737248840804,4.494783616692428,0)" xlink:href="#E"/><use transform="matrix(0.003984737248840804,0,0,0.003984737248840804,9.388040958268935,0)" xlink:href="#E"/><use transform="matrix(0.003984737248840804,0,0,0.003984737248840804,14.281298299845442,0)" xlink:href="#ay"/><use transform="matrix(0.003984737248840804,0,0,0.003984737248840804,19.413639876352402,0)" xlink:href="#z"/><use transform="matrix(0.003984737248840804,0,0,0.003984737248840804,24.17141615146832,0)" xlink:href="#Q"/><use transform="matrix(0.003984737248840804,0,0,0.003984737248840804,29.16827666151469,0)" xlink:href="#E"/><use transform="matrix(0.003984737248840804,0,0,0.003984737248840804,34.0615340030912,0)" xlink:href="#O"/><use transform="matrix(0.003984737248840804,0,0,0.003984737248840804,38.369034969088105,0)" xlink:href="#M"/><use transform="matrix(0.003984737248840804,0,0,0.003984737248840804,40.34546464451315,0)" xlink:href="#I"/><use transform="matrix(0.003984737248840804,0,0,0.003984737248840804,42.93554385625967,0)" xlink:href="#E"/><use transform="matrix(0.003984737248840804,0,0,0.003984737248840804,47.82880119783618,0)" xlink:href="#J"/><use transform="matrix(0.003984737248840804,0,0,0.003984737248840804,51.028545208655345,0)" xlink:href="#az"/></g><path fill="#282c33" d="M481 0L54-1118h197c107 314 236 620 325 951 87-331 217-637 324-951h197L670 0H481" id="aA"/><g id="t"><use transform="matrix(0.006510416666666667,0,0,0.006510416666666667,0,0)" xlink:href="#V"/><use transform="matrix(0.006510416666666667,0,0,0.006510416666666667,7.037760416666667,0)" xlink:href="#ab"/><use transform="matrix(0.006510416666666667,0,0,0.006510416666666667,14.329427083333334,0)" xlink:href="#aA"/><use transform="matrix(0.006510416666666667,0,0,0.006510416666666667,21.5625,0)" xlink:href="#ap"/></g><path fill="#282c33" d="M338-670V0H158v-1490h180v566c73-149 190-208 336-208 226 0 379 139 379 422V0H872v-695c0-172-96-275-252-275-161 0-282 109-282 300" id="aB"/><path fill="#282c33" d="M545 20c-263 0-445-160-445-446v-80h190v80c0 182 102 279 255 279 152 0 254-97 254-279v-1064h190v1064c0 286-181 446-444 446" id="aC"/><path fill="#282c33" d="M157-1118h181V80c1 225-123 350-364 338V252c126 9 184-48 183-172v-1198zm91-183c-68 0-125-53-125-119s57-119 125-119c69 0 126 53 126 119s-57 119-126 119" id="aD"/><path fill="#282c33" d="M645 0H180v-1490h484c435 0 692 280 692 742 0 466-257 748-711 748zM370-168h263c363 0 539-218 539-580 0-358-176-574-521-574H370v1154" id="aE"/><path fill="#282c33" d="M128 359l88-567h206L266 359H128" id="aF"/><path fill="#282c33" d="M158 0v-1118h174v172h12c41-113 157-188 290-188 26 0 70 2 91 3v181c-11-2-60-10-108-10-161 0-279 109-279 260V0H158" id="aG"/><path fill="#282c33" d="M611 442c-248 0-391-105-460-228l146-94c47 65 117 165 314 165 178 0 307-82 307-266v-224h-17C863-141 792-18 576-18c-268 0-472-195-472-546 0-346 197-568 476-568 216 0 288 133 326 193h17v-179h175V29c0 289-215 413-487 413zm-5-620c203 0 314-146 314-390 0-237-108-403-314-403-213 0-319 180-319 403 0 230 109 390 319 390" id="aH"/><g id="u"><use transform="matrix(0.006510416666666667,0,0,0.006510416666666667,0,0)" xlink:href="#V"/><use transform="matrix(0.006510416666666667,0,0,0.006510416666666667,7.037760416666667,0)" xlink:href="#au"/><use transform="matrix(0.006510416666666667,0,0,0.006510416666666667,14.654947916666668,0)" xlink:href="#aB"/><use transform="matrix(0.006510416666666667,0,0,0.006510416666666667,22.5390625,0)" xlink:href="#ap"/><use transform="matrix(0.006510416666666667,0,0,0.006510416666666667,30.3125,0)" xlink:href="#aq"/><use transform="matrix(0.006510416666666667,0,0,0.006510416666666667,38.4765625,0)" xlink:href="#ai"/><use transform="matrix(0.006510416666666667,0,0,0.006510416666666667,46.360677083333336,0)" xlink:href="#X"/><use transform="matrix(0.006510416666666667,0,0,0.006510416666666667,49.58984375,0)" xlink:href="#ap"/><use transform="matrix(0.006510416666666667,0,0,0.006510416666666667,57.36328125,0)" xlink:href="#aC"/><use transform="matrix(0.006510416666666667,0,0,0.006510416666666667,64.97395833333333,0)" xlink:href="#ag"/><use transform="matrix(0.006510416666666667,0,0,0.006510416666666667,72.96875,0)" xlink:href="#aj"/><use transform="matrix(0.006510416666666667,0,0,0.006510416666666667,81.1328125,0)" xlink:href="#av"/><use transform="matrix(0.006510416666666667,0,0,0.006510416666666667,86.37369791666667,0)" xlink:href="#aD"/><use transform="matrix(0.006510416666666667,0,0,0.006510416666666667,89.60286458333334,0)" xlink:href="#ag"/><use transform="matrix(0.006510416666666667,0,0,0.006510416666666667,97.59765625000001,0)" xlink:href="#aj"/><use transform="matrix(0.006510416666666667,0,0,0.006510416666666667,105.76171875000001,0)" xlink:href="#aE"/><use transform="matrix(0.006510416666666667,0,0,0.006510416666666667,115.38411458333334,0)" xlink:href="#ap"/><use transform="matrix(0.006510416666666667,0,0,0.006510416666666667,123.15755208333334,0)" xlink:href="#Z"/><use transform="matrix(0.006510416666666667,0,0,0.006510416666666667,127.5846354166667,0)" xlink:href="#ab"/><use transform="matrix(0.006510416666666667,0,0,0.006510416666666667,135.07161458333334,0)" xlink:href="#Y"/><use transform="matrix(0.006510416666666667,0,0,0.006510416666666667,138.30078125,0)" xlink:href="#X"/><use transform="matrix(0.006510416666666667,0,0,0.006510416666666667,141.52994791666666,0)" xlink:href="#aF"/><use transform="matrix(0.006510416666666667,0,0,0.006510416666666667,145.37109375,0)" xlink:href="#Z"/><use transform="matrix(0.006510416666666667,0,0,0.006510416666666667,149.73307291666666,0)" xlink:href="#aG"/><use transform="matrix(0.006510416666666667,0,0,0.006510416666666667,154.9609375,0)" xlink:href="#Y"/><use transform="matrix(0.006510416666666667,0,0,0.006510416666666667,158.19010416666666,0)" xlink:href="#aH"/><use transform="matrix(0.006510416666666667,0,0,0.006510416666666667,166.3671875,0)" xlink:href="#aH"/><use transform="matrix(0.006510416666666667,0,0,0.006510416666666667,174.54427083333334,0)" xlink:href="#ap"/><use transform="matrix(0.006510416666666667,0,0,0.006510416666666667,182.31770833333334,0)" xlink:href="#aG"/><use transform="matrix(0.006510416666666667,0,0,0.006510416666666667,187.33723958333334,0)" xlink:href="#aw"/></g><g id="v"><use transform="matrix(0.006510416666666667,0,0,0.006510416666666667,0,0)" xlink:href="#au"/><use transform="matrix(0.006510416666666667,0,0,0.006510416666666667,7.6171875,0)" xlink:href="#aG"/><use transform="matrix(0.006510416666666667,0,0,0.006510416666666667,12.415364583333332,0)" xlink:href="#ap"/><use transform="matrix(0.006510416666666667,0,0,0.006510416666666667,20.319010416666664,0)" xlink:href="#ab"/><use transform="matrix(0.006510416666666667,0,0,0.006510416666666667,27.805989583333336,0)" xlink:href="#Z"/><use transform="matrix(0.006510416666666667,0,0,0.006510416666666667,32.037760416666664,0)" xlink:href="#ap"/><use transform="matrix(0.006510416666666667,0,0,0.006510416666666667,39.811197916666664,0)" xlink:href="#ah"/><use transform="matrix(0.006510416666666667,0,0,0.006510416666666667,48.365885416666664,0)" xlink:href="#ai"/><use transform="matrix(0.006510416666666667,0,0,0.006510416666666667,56.25,0)" xlink:href="#aj"/><use transform="matrix(0.006510416666666667,0,0,0.006510416666666667,63.372395833333336,0)" xlink:href="#ad"/><use transform="matrix(0.006510416666666667,0,0,0.006510416666666667,71.00260416666667,0)" xlink:href="#ab"/><use transform="matrix(0.006510416666666667,0,0,0.006510416666666667,78.48958333333334,0)" xlink:href="#V"/><use transform="matrix(0.006510416666666667,0,0,0.006510416666666667,85.52734375000001,0)" xlink:href="#ae"/><use transform="matrix(0.006510416666666667,0,0,0.006510416666666667,92.84505208333334,0)" xlink:href="#V"/></g></defs></g></svg>